<svg width="172" height="26" viewBox="0 0 172 26" fill="none" xmlns="http://www.w3.org/2000/svg">
<path fill-rule="evenodd" clip-rule="evenodd" d="M13.8723 24.9437C20.5262 24.9437 25.9203 19.5496 25.9203 12.8957C25.9203 6.24173 20.5262 0.847656 13.8723 0.847656C7.21837 0.847656 1.8243 6.24173 1.8243 12.8957C1.8243 19.5496 7.21837 24.9437 13.8723 24.9437ZM8.58845 17.2397C7.50698 18.295 6.27536 19.459 5.10152 16.9596C3.92768 14.4603 3.92881 11.0886 5.28751 8.55943C6.37524 6.53471 7.72056 7.32108 8.78193 8.35585L13.2391 12.7013L8.58845 17.2397ZM9.81442 7.55814C8.71547 6.48857 8.07029 4.68628 9.96834 3.9337C12.4379 2.56014 15.4332 2.66685 17.8731 3.94018C19.9139 5.00517 19.229 6.52852 18.0985 7.62885L13.9928 11.6249L9.81442 7.55814ZM18.5792 21.5782C20.0881 20.6217 19.6102 19.2217 18.6317 18.2306L13.9928 13.5317L9.35145 18.2324C8.33792 19.2589 7.39774 20.4465 9.46708 21.6732C12.1787 23.2806 16.0117 23.2057 18.5792 21.5782ZM22.7247 16.3313C21.8893 18.6774 20.1962 18.0013 19.0101 16.8256L14.849 12.7013L18.9927 8.59511C20.1274 7.47068 21.6936 6.73704 22.606 8.97887C23.5184 11.2207 23.5601 13.9852 22.7247 16.3313Z" fill="#151413"/>
<path d="M4.43523 22.772C4.43523 23.965 3.46817 24.932 2.27523 24.932C1.0823 24.932 0.115234 23.965 0.115234 22.772C0.115234 21.5791 1.0823 20.612 2.27523 20.612C3.46817 20.612 4.43523 21.5791 4.43523 22.772Z" fill="#151413"/>
<path fill-rule="evenodd" clip-rule="evenodd" d="M63.8477 4.88063C63.8477 4.88063 63.3262 8.49298 63.3363 10.8216C63.3459 13.0388 63.3363 16.2739 63.3363 16.2739C63.3363 20.3862 65.6342 23.0829 69.342 23.0829C73.0499 23.0829 75.0165 20.8919 75.6117 16.2739V4.91432C75.6117 3.43345 73.9922 2.99808 72.9815 2.72638C72.7499 2.66412 72.5503 2.61046 72.4094 2.55477C71.654 2.2561 72.4094 1.375 72.4094 1.375H80.7346C80.7948 1.375 80.8529 1.38351 80.9079 1.3994C80.9354 1.39641 80.9633 1.39528 80.9917 1.39614C83.0259 1.45788 84.7899 1.43059 86.5207 1.40383C86.9879 1.3966 87.4527 1.38941 87.9198 1.38402C88.698 1.37504 89.3394 1.97783 89.5825 2.71721C89.6509 2.92536 89.7285 3.13865 89.8131 3.37122L89.8349 3.4312L95.3293 18.1278L100.453 3.39749C100.473 3.34217 100.493 3.28817 100.512 3.23527C100.579 3.05132 100.642 2.8807 100.698 2.7146C100.948 1.97774 101.589 1.37502 102.367 1.37502H121.034C127.371 1.37502 130.337 4.54356 130.337 8.38625C130.337 12.802 127.27 15.6334 120.967 15.6334H118.371V21.2964C118.371 23.0607 119.166 23.5588 121.83 23.7815C122.159 23.809 122.416 24.0814 122.416 24.4116C122.416 24.7575 122.136 25.0379 121.79 25.0379H111.343C110.998 25.0379 110.719 24.7588 110.719 24.4144C110.719 24.0975 110.958 23.8324 111.273 23.7905C113.133 23.5428 113.416 23.2303 113.416 21.5323C113.778 9.40024 113.778 6.73456 113.778 4.88063C113.778 3.0267 111.892 2.55479 109.524 2.55479C107.367 2.65592 105.678 3.22895 105.678 5.01546V21.8357C105.86 23.2983 106.381 23.8076 107.849 23.9667C108.129 23.997 108.349 24.2265 108.349 24.508C108.349 24.8007 108.112 25.0379 107.819 25.0379H97.9283C97.6333 25.0379 97.394 24.7987 97.394 24.5037C97.394 24.2234 97.6115 23.9919 97.8905 23.9646C99.927 23.7657 100.992 23.2662 100.992 21.7345V6.93681L94.5203 25.0379H92.8349L86.0259 6.93681V21.7008C86.0259 23.2554 86.7426 23.9236 88.8785 24.1374C89.1127 24.1608 89.2956 24.3549 89.2956 24.5903C89.2956 24.8375 89.0952 25.0379 88.8479 25.0379H81.5341C81.5247 25.0379 81.5154 25.0379 81.5061 25.0375C81.4989 25.0373 81.4916 25.0369 81.4844 25.0363C81.3839 25.0274 81.0142 24.9745 81.0828 24.674C81.2147 24.0962 81.744 23.9771 82.3554 23.8395C83.2128 23.6466 84.2318 23.4174 84.5428 21.8357C85.0756 19.1261 84.5428 5.01546 84.5428 5.01546C84.5428 3.38191 82.9202 2.76294 80.9415 2.59161L80.9333 2.59084C80.8924 2.60493 80.8495 2.615 80.8051 2.62058C78.7569 2.87778 77.4319 3.24035 77.4319 4.91432C77.4319 4.91432 77.8867 11.5038 77.2569 17.0308C76.6271 22.5577 73.4544 25.375 68.4656 25.375C62.4993 25.375 58.9263 22.611 58.9263 16.8132V4.88063C58.9263 3.15403 58.634 2.68458 56.6878 2.41041C56.4278 2.37377 56.2297 2.15421 56.2297 1.8916C56.2297 1.6063 56.461 1.37502 56.7463 1.37502H65.9208C66.2651 1.37502 66.5443 1.65416 66.5443 1.9985C66.5443 2.31545 66.3051 2.58058 65.991 2.62241C64.1304 2.87015 63.8477 3.18259 63.8477 4.88063ZM118.371 2.72333V14.184H119.82C123.562 14.184 125.281 12.0604 125.281 8.48737C125.281 5.11659 123.461 2.72333 119.82 2.72333H118.371ZM59.7607 5.39676V2.89973C59.7607 2.81689 59.8282 2.74973 59.911 2.74973H62.4642C62.6264 2.74973 62.6733 2.97146 62.5249 3.03696L60.7604 3.81565C60.7248 3.83138 60.6967 3.86035 60.682 3.89644L60.0497 5.45321C59.9877 5.60581 59.7607 5.56147 59.7607 5.39676ZM88.3489 2.74472L85.6619 2.74434C85.5022 2.74431 85.453 2.96054 85.597 3.02958L87.5845 3.98301C87.6047 3.99269 87.6225 4.00678 87.6366 4.02423L88.9455 5.65148C89.0472 5.77789 89.2492 5.67518 89.2072 5.51848L88.4938 2.85607C88.4763 2.7905 88.4168 2.74473 88.3489 2.74472ZM104.695 2.67949L102.267 2.67984C102.2 2.67985 102.14 2.72551 102.123 2.79108L101.479 5.19421C101.437 5.35091 101.639 5.45367 101.74 5.32726L102.916 3.86547C102.93 3.84801 102.948 3.83393 102.968 3.82424L104.76 2.96474C104.904 2.8957 104.855 2.67947 104.695 2.67949ZM114.711 2.51373L114.926 4.52717C114.945 4.70727 115.208 4.70526 115.225 4.52488L115.313 3.55766C115.318 3.5034 115.352 3.4561 115.402 3.4341L117.213 2.635C117.361 2.56951 117.314 2.34777 117.152 2.34777H114.86C114.771 2.34777 114.701 2.42508 114.711 2.51373Z" fill="#151413"/>
<path fill-rule="evenodd" clip-rule="evenodd" d="M42.5041 14.9256V21.5323C42.5041 23.2303 42.7869 23.5428 44.6474 23.7905C44.9616 23.8324 45.2007 24.0975 45.2007 24.4144C45.2007 24.7588 44.9216 25.0379 44.5772 25.0379H35.4759C35.1316 25.0379 34.8524 24.7588 34.8524 24.4144C34.8524 24.0975 35.0916 23.8324 35.4057 23.7905C37.2663 23.5428 37.549 23.2303 37.549 21.5323V4.88063C37.549 4.88063 37.2941 3.17788 35.177 2.88385C35.177 2.88385 34.0509 2.78261 34.0508 2.16334C34.0507 1.54408 34.8524 1.37502 34.8524 1.37502H45.6052C51.2007 1.37502 54.6099 4.00423 54.6099 7.94805C54.6099 11.6222 51.4704 13.5436 48.9423 14.184C48.9423 14.184 51.0873 17.288 51.3401 17.7645C51.5929 18.241 54.0322 21.0941 54.0322 21.0941C55.549 23.1503 56.3917 23.8244 58.1445 23.8582V25.0379H51.74C50.7625 24.3301 49.9198 23.2514 48.9086 21.7346C48.9086 21.7346 47.5326 19.8132 46.5827 18.3301C45.6329 16.847 44.2569 14.9256 44.2569 14.9256H42.5041ZM44.0546 2.35251H42.5041C42.5041 2.35251 42.3852 4.21964 42.5041 5.44524C42.623 6.67084 42.6796 9.85727 42.5041 10.8216C42.3286 11.786 42.5041 13.5098 42.5041 13.5098H44.1221C46.2691 13.5098 47.5058 12.9921 48.5984 11.3975C49.3736 10.2662 49.6898 9.32708 49.6898 7.94805C49.6898 6.87208 49.1895 5.88494 48.74 5.01546C47.9222 3.43342 46.3604 2.35251 44.0546 2.35251ZM38.5247 2.89969V5.39672C38.5247 5.56143 38.7517 5.60577 38.8137 5.45317L39.446 3.8964C39.4606 3.86031 39.4888 3.83134 39.5244 3.81561L41.2889 3.03692C41.4373 2.97142 41.3904 2.74969 41.2282 2.74969H38.675C38.5921 2.74969 38.5247 2.81684 38.5247 2.89969Z" fill="#151413"/>
<path fill-rule="evenodd" clip-rule="evenodd" d="M130.862 24.4171C130.651 24.6599 130.824 25.0379 131.145 25.0379H150.156L151.081 19.0731C151.144 18.6648 150.828 18.2964 150.415 18.2964C150.172 18.2964 149.947 18.4281 149.827 18.6397C147.706 22.3868 146.739 23.6896 144.089 23.6896H141.999C139.909 23.6896 138.999 23.2177 138.999 21.3975V13.5773H143.28C144.627 13.5773 145.168 14.3287 145.508 16.0846C145.57 16.4057 145.847 16.6447 146.174 16.6447C146.519 16.6447 146.806 16.3802 146.828 16.0353C146.884 15.1289 146.956 13.4633 146.785 12.8188C146.617 12.1855 146.684 10.566 146.74 9.65005C146.761 9.29546 146.481 8.99299 146.126 8.99299C145.826 8.99299 145.573 9.21216 145.517 9.50633C145.177 11.3008 144.639 12.0941 143.28 12.0941H138.999V2.72333C138.999 2.72333 142.405 2.89187 143.718 2.72333C144.988 2.56031 147.238 3.6903 148.879 7.08945C148.982 7.30273 149.196 7.44243 149.433 7.44243C149.76 7.44243 150.027 7.18116 150.034 6.85419L150.122 2.90834C150.141 2.06708 149.464 1.37502 148.622 1.37502H131.231C130.965 1.37502 130.795 1.65685 130.918 1.89194C131.135 2.30654 131.546 2.58187 132.009 2.64835C133.716 2.89337 134.044 3.24122 134.044 4.88063C134.044 4.88063 134.138 8.24598 134.195 9.40024C134.255 10.6217 134.181 12.9283 134.116 14.9454L134.116 14.9458V14.9461C134.071 16.3667 134.03 17.6436 134.044 18.2964C134.115 21.6483 134.044 21.5323 134.044 21.5323C134.044 23.2222 133.764 23.5398 131.927 23.787C131.555 23.837 131.21 24.0154 130.964 24.2989L130.862 24.4171ZM134.925 5.34428V2.8327C134.925 2.74985 134.992 2.6827 135.075 2.6827H137.643C137.805 2.6827 137.852 2.90443 137.703 2.96993L135.928 3.75327C135.893 3.769 135.865 3.79797 135.85 3.83405L135.214 5.40073C135.152 5.55333 134.925 5.509 134.925 5.34428Z" fill="#151413"/>
<path fill-rule="evenodd" clip-rule="evenodd" d="M160.395 4.88063C160.395 4.88063 160.554 8.16272 160.395 13.1391C160.236 18.1154 160.395 21.3975 160.395 21.3975C160.395 23.2177 161.238 23.6896 163.328 23.6896H164.777C167.351 23.4685 167.949 22.3754 169.726 19.1258C169.923 18.7667 170.133 18.3812 170.363 17.9676C170.446 17.818 170.605 17.7233 170.776 17.7233C171.046 17.7233 171.261 17.9491 171.248 18.2186L170.93 24.6813C170.92 24.8811 170.755 25.0379 170.555 25.0379H153.367C153.023 25.0379 152.744 24.7588 152.744 24.4144C152.744 24.0975 152.983 23.8324 153.297 23.7905C155.157 23.5428 155.44 23.2303 155.44 21.5323C155.44 21.5323 155.176 17.42 155.44 13.2065C155.704 8.99299 155.44 4.88063 155.44 4.88063C155.44 3.17807 154.495 2.86849 152.513 2.62043C152.199 2.58107 151.96 2.31545 151.96 1.9985C151.96 1.65416 152.239 1.37502 152.583 1.37502H162.468C162.813 1.37502 163.092 1.65416 163.092 1.9985C163.092 2.31545 162.853 2.58058 162.539 2.62241C160.678 2.87015 160.395 3.18259 160.395 4.88063ZM156.447 2.83513L156.738 5.21105C156.758 5.37844 156.991 5.4235 157.034 5.26841L157.442 3.79641C157.452 3.75973 157.477 3.73029 157.51 3.71431L159.069 2.97459C159.21 2.90803 159.135 2.6827 158.973 2.6827H156.579C156.496 2.6827 156.437 2.75094 156.447 2.83513Z" fill="#151413"/>
</svg>
