<svg width="25" height="24" viewBox="0 0 25 24" fill="none" xmlns="http://www.w3.org/2000/svg">
<path d="M17.7 14.0016C17.977 14.0016 18.1155 14.0016 18.2278 14.0631C18.3204 14.1139 18.4065 14.2092 18.4478 14.3064C18.4978 14.4242 18.4852 14.5496 18.46 14.8003C18.3296 16.1004 17.8822 17.3531 17.1518 18.4462C16.2727 19.7618 15.0233 20.7872 13.5615 21.3927C12.0997 21.9982 10.4911 22.1566 8.93928 21.8479C7.38743 21.5392 5.96197 20.7773 4.84315 19.6585C3.72433 18.5397 2.9624 17.1142 2.65372 15.5624C2.34504 14.0105 2.50347 12.402 3.10897 10.9402C3.71447 9.47836 4.73985 8.22893 6.05544 7.34988C7.14856 6.61948 8.40125 6.17204 9.70131 6.0416C9.95207 6.01644 10.0774 6.00386 10.1953 6.05385C10.2925 6.09509 10.3878 6.18128 10.4385 6.27388C10.5 6.38614 10.5 6.52464 10.5 6.80164V13.2016C10.5 13.4817 10.5 13.6217 10.5545 13.7286C10.6024 13.8227 10.6789 13.8992 10.773 13.9471C10.88 14.0016 11.02 14.0016 11.3 14.0016H17.7Z" stroke="#F4689A" stroke-width="2" stroke-linecap="round" stroke-linejoin="round"/>
<path d="M14.5 2.80164C14.5 2.52463 14.5 2.38613 14.5615 2.27388C14.6122 2.18127 14.7075 2.09508 14.8047 2.05384C14.9225 2.00385 15.0479 2.01643 15.2987 2.04158C17.1271 2.22498 18.846 3.03394 20.1569 4.34478C21.4677 5.65562 22.2767 7.37453 22.4601 9.20294C22.4852 9.45371 22.4978 9.57909 22.4478 9.69692C22.4066 9.79412 22.3204 9.88939 22.2278 9.94013C22.1155 10.0016 21.977 10.0016 21.7 10.0016L15.3 10.0016C15.02 10.0016 14.88 10.0016 14.773 9.94714C14.6789 9.8992 14.6024 9.82271 14.5545 9.72863C14.5 9.62167 14.5 9.48166 14.5 9.20163V2.80164Z" stroke="#F4689A" stroke-width="2" stroke-linecap="round" stroke-linejoin="round"/>
</svg>
